<?xml version="1.0" encoding="UTF-8" standalone="no"?><!DOCTYPE svg PUBLIC "-//W3C//DTD SVG 1.1//EN" "http://www.w3.org/Graphics/SVG/1.1/DTD/svg11.dtd"><svg width="100%" height="100%" viewBox="0 0 64 64" version="1.1" xmlns="http://www.w3.org/2000/svg" xmlns:xlink="http://www.w3.org/1999/xlink" xml:space="preserve" xmlns:serif="http://www.serif.com/" style="fill-rule:evenodd;clip-rule:evenodd;stroke-linecap:round;stroke-linejoin:round;"><path d="M38,17.996l0,9c0,1.656 -1.344,3 -3,3l-24,0c-1.656,0 -3,-1.344 -3,-3l0,-9c0,-1.656 1.344,-3 3,-3l24,0c1.656,0 3,1.344 3,3Z" style="fill:none;stroke:#c5c5c5;stroke-width:4px;"/><path d="M56,17.996l0,9c0,1.656 -1.344,3 -3,3l-8,0c-1.656,0 -3,-1.344 -3,-3l0,-9c0,-1.656 1.344,-3 3,-3l8,0c1.656,0 3,1.344 3,3Z" style="fill:none;stroke:#c5c5c5;stroke-width:4px;"/><path d="M56,37.004l0,9c0,1.656 -1.344,3 -3,3l-28,0c-1.656,0 -3,-1.344 -3,-3l0,-9c0,-1.656 1.344,-3 3,-3l28,0c1.656,0 3,1.344 3,3Z" style="fill:none;stroke:#8160e3;stroke-width:4px;"/></svg>